<svg width="62" height="62" viewBox="0 0 62 62" fill="none" xmlns="http://www.w3.org/2000/svg">
<path d="M54.25 47.7917C54.25 51.3592 51.3592 54.25 47.7917 54.25H14.2083C10.642 54.25 7.75 51.3592 7.75 47.7917V14.2083C7.75 10.6407 10.642 7.75 14.2083 7.75H47.7917C51.3592 7.75 54.25 10.6407 54.25 14.2083V47.7917Z" fill="#673AB7"/>
<path d="M42.6637 33.0667C41.8242 31.9042 40.61 31.1033 39.0471 30.6771C39.0471 30.6771 40.3646 30.1992 41.5529 28.4167C42.2633 27.28 42.625 25.9108 42.625 24.3092C42.625 21.5321 41.6175 19.4008 39.6025 17.9413C37.5875 16.4817 35.3142 15.5 31.4521 15.5H19.375V46.5H32.8471C36.5025 46.4742 39.2537 45.6863 41.1267 44.175C42.9867 42.6379 43.9167 40.3646 43.9167 37.3292C43.9167 35.65 43.5033 34.2292 42.6637 33.0667ZM27.125 20.6667C27.125 20.6667 32.5112 20.6667 32.6146 20.6667C34.5779 20.6667 36.1667 22.2554 36.1667 24.2187C36.1667 26.1821 34.5779 27.7708 32.6146 27.7708C32.5112 27.7708 27.125 27.7708 27.125 27.7708V20.6667ZM33.5833 41.3333H27.125V33.5833H33.5833C35.7275 33.5833 37.4583 35.3142 37.4583 37.4583C37.4583 39.6025 35.7275 41.3333 33.5833 41.3333Z" fill="white"/>
</svg>
