<svg width="56" height="56" viewBox="0 0 56 56" fill="none" xmlns="http://www.w3.org/2000/svg">
<g clip-path="url(#clip0_151_14)">
<mask id="mask0_151_14" style="mask-type:luminance" maskUnits="userSpaceOnUse" x="0" y="0" width="56" height="56">
<path d="M56 0H0V56H56V0Z" fill="white"/>
</mask>
<g mask="url(#mask0_151_14)">
<mask id="mask1_151_14" style="mask-type:luminance" maskUnits="userSpaceOnUse" x="0" y="0" width="56" height="56">
<path d="M56 0H0V56H56V0Z" fill="white"/>
</mask>
<g mask="url(#mask1_151_14)">
<path d="M22.6334 45.0801C25.8551 45.0801 28.4669 42.4685 28.4669 39.2468V33.4133H22.6334C19.4117 33.4133 16.8 36.0252 16.8 39.2468C16.8 42.4685 19.4117 45.0801 22.6334 45.0801Z" fill="#0ACF83"/>
<path d="M16.8 27.5802C16.8 24.3585 19.4117 21.7468 22.6334 21.7468H28.4669V33.4134H22.6334C19.4117 33.4134 16.8 30.8018 16.8 27.5802Z" fill="#A259FF"/>
<path d="M16.8 15.9134C16.8 12.6917 19.4117 10.0801 22.6334 10.0801H28.4669V21.7467H22.6334C19.4117 21.7467 16.8 19.1351 16.8 15.9134Z" fill="#F24E1E"/>
<path d="M28.4668 10.0801H34.3001C37.5218 10.0801 40.1336 12.6917 40.1336 15.9134C40.1336 19.1351 37.5218 21.7467 34.3001 21.7467H28.4668V10.0801Z" fill="#FF7262"/>
<path d="M40.1336 27.5802C40.1336 30.8018 37.5218 33.4134 34.3001 33.4134C31.0784 33.4134 28.4668 30.8018 28.4668 27.5802C28.4668 24.3585 31.0784 21.7468 34.3001 21.7468C37.5218 21.7468 40.1336 24.3585 40.1336 27.5802Z" fill="#1ABCFE"/>
</g>
</g>
</g>
<defs>
<clipPath id="clip0_151_14">
<rect width="56" height="56" fill="white"/>
</clipPath>
</defs>
</svg>
