<svg width="50" height="50" viewBox="0 0 50 50" fill="none" xmlns="http://www.w3.org/2000/svg">
<path d="M8.33337 38.5416L24.2021 8.78746C24.5365 8.16038 25.4406 8.17184 25.7583 8.8083L31.25 19.7916L8.33337 38.5416Z" fill="#FF8F00"/>
<path d="M8.33337 38.5334L14.1104 2.90942C14.2615 1.97713 15.5136 1.77504 15.9511 2.61254L27.0833 23.95L8.33337 38.5334Z" fill="#FFA000"/>
<path d="M8.34167 38.5271L8.55001 38.3636L26.8094 23.425L21.6594 13.5542L8.34167 38.5271Z" fill="#FF6F00"/>
<path d="M8.33337 38.5417L36.1104 11.7573C36.6927 11.1959 37.6646 11.5271 37.7833 12.3271L41.6667 38.5417L26.0417 47.649C25.4073 48.0052 24.6333 48.0052 23.999 47.649L8.33337 38.5417Z" fill="#FFC400"/>
</svg>
