<svg width="50" height="50" viewBox="0 0 50 50" fill="none" xmlns="http://www.w3.org/2000/svg">
<mask id="mask0_151_8" style="mask-type:luminance" maskUnits="userSpaceOnUse" x="1" y="1" width="48" height="48">
<path d="M1.37244 1.86572H48.6355V48.1744H1.37244V1.86572Z" fill="white"/>
</mask>
<g mask="url(#mask0_151_8)">
<path d="M25.0039 1.87402C11.9535 1.87402 1.37244 12.3988 1.37244 25.3798C1.37244 36.3943 8.99758 45.6105 19.2773 48.1608C19.167 47.8435 19.0961 47.4754 19.0961 47.019V43.0012C18.137 43.0012 16.5301 43.0012 16.1264 43.0012C14.5095 43.0012 13.072 42.31 12.3749 41.0249C11.6009 39.5969 11.467 37.4129 9.54889 36.077C8.9798 35.6323 9.41301 35.1249 10.0689 35.1935C11.2799 35.5344 12.2843 36.361 13.2295 37.5871C14.1709 38.8153 14.614 39.0935 16.3726 39.0935C17.2252 39.0935 18.5014 39.0446 19.7026 38.8565C20.3485 37.2249 21.4652 35.7225 22.8298 35.0132C14.9605 34.2081 11.2051 30.314 11.2051 25.0272C11.2051 22.751 12.1799 20.5494 13.8361 18.6944C13.2926 16.8532 12.6092 13.0981 14.0449 11.6681C17.5856 11.6681 19.7262 13.9522 20.2402 14.5691C22.0046 13.9678 23.9425 13.6269 25.9787 13.6269C28.0189 13.6269 29.9647 13.9678 31.7331 14.573C32.2411 13.9599 34.3837 11.6681 37.9323 11.6681C39.3738 13.1 38.6826 16.8707 38.1331 18.7081C39.7796 20.5592 40.7484 22.7551 40.7484 25.0272C40.7484 30.3102 36.9989 34.2023 29.1414 35.0113C31.3037 36.1337 32.881 39.2874 32.881 41.6634V47.019C32.881 47.2225 32.8358 47.3696 32.812 47.5438C42.0205 44.3334 48.6355 35.6363 48.6355 25.3798C48.6355 12.3988 38.0542 1.87402 25.0039 1.87402Z" fill="#F9F4F1"/>
</g>
</svg>
