<svg width="55" height="55" viewBox="0 0 55 55" fill="none" xmlns="http://www.w3.org/2000/svg">
<path d="M20.7843 41.5186C20.7843 41.5186 18.7931 42.6773 22.2014 43.0696C26.3313 43.5404 28.4405 43.4725 32.9907 42.6108C32.9907 42.6108 34.1871 43.3608 35.8587 44.011C25.6584 48.3837 12.7725 43.7577 20.7843 41.5186Z" fill="#5382A1"/>
<path d="M19.5377 35.8135C19.5377 35.8135 17.3043 37.4672 20.7153 37.8202C25.1258 38.2744 28.6094 38.3121 34.6366 37.1504C34.6366 37.1504 35.471 37.9967 36.7821 38.4585C24.4483 42.0645 10.7118 38.7436 19.5377 35.8135Z" fill="#5382A1"/>
<path d="M30.0459 26.1352C32.5594 29.0307 29.3851 31.6349 29.3851 31.6349C29.3851 31.6349 35.7684 28.3397 32.837 24.2129C30.0986 20.3655 28 18.4538 39.3653 11.8623C39.3653 11.8623 21.5262 16.3173 30.0459 26.1352Z" fill="#E76F00"/>
<path d="M43.5367 45.7392C43.5367 45.7392 45.0106 46.9538 41.9147 47.8938C36.0263 49.6773 17.4072 50.2159 12.2354 47.9647C10.3765 47.156 13.8632 46.0334 14.9599 45.7966C16.1037 45.5491 16.7574 45.5958 16.7574 45.5958C14.6897 44.1383 3.39268 48.4551 11.0192 49.6923C31.8168 53.0646 48.9319 48.1729 43.5367 45.7392Z" fill="#5382A1"/>
<path d="M21.7419 29.902C21.7419 29.902 12.2713 32.1517 18.3882 32.9679C20.9707 33.315 26.12 33.2365 30.9147 32.8337C34.8343 32.5033 38.7705 31.8002 38.7705 31.8002C38.7705 31.8002 37.3887 32.3932 36.3884 33.0751C26.7702 35.6054 8.19194 34.4286 13.5403 31.8409C18.064 29.6546 21.7419 29.902 21.7419 29.902Z" fill="#5382A1"/>
<path d="M38.7313 39.399C48.5078 34.3188 43.9862 29.4361 40.8314 30.094C40.059 30.2555 39.7135 30.3943 39.7135 30.3943C39.7135 30.3943 40.0001 29.9446 40.5493 29.7501C46.7909 27.5562 51.5917 36.2229 38.5338 39.6555C38.5338 39.6555 38.686 39.5197 38.7313 39.399Z" fill="#5382A1"/>
<mask id="mask0_151_89" style="mask-type:luminance" maskUnits="userSpaceOnUse" x="20" y="1" width="15" height="29">
<path d="M20.7902 1.2229H34.2469V29.8105H20.7902V1.2229Z" fill="white"/>
</mask>
<g mask="url(#mask0_151_89)">
<path d="M32.8364 1.2184C32.8364 1.2184 38.2512 6.6349 27.7006 14.964C19.2415 21.6447 25.7726 25.4546 27.6976 29.8075C22.7595 25.3519 19.1357 21.429 21.5669 17.7791C25.1358 12.4202 35.0209 9.82232 32.8364 1.2184Z" fill="#E76F00"/>
</g>
<path d="M22.7027 53.1673C32.0871 53.7678 46.4965 52.8338 46.8374 48.3933C46.8374 48.3933 46.1811 50.0757 39.0827 51.4124C31.0729 52.9198 21.1938 52.7448 15.3354 51.7777C15.3354 51.7777 16.5353 52.7704 22.7027 53.1673Z" fill="#5382A1"/>
</svg>
