<svg width="46" height="46" viewBox="0 0 46 46" fill="none" xmlns="http://www.w3.org/2000/svg">
<g clip-path="url(#clip0_151_74)">
<mask id="mask0_151_74" style="mask-type:luminance" maskUnits="userSpaceOnUse" x="0" y="0" width="46" height="46">
<path d="M46 0H0V46H46V0Z" fill="white"/>
</mask>
<g mask="url(#mask0_151_74)">
<mask id="mask1_151_74" style="mask-type:luminance" maskUnits="userSpaceOnUse" x="0" y="0" width="46" height="46">
<path d="M46 0H0V46H46V0Z" fill="white"/>
</mask>
<g mask="url(#mask1_151_74)">
<path d="M8.14584 3.70765e-06H37.8541C38.9243 -0.00103064 39.9839 0.214364 40.9727 0.633862C41.9614 1.05336 42.8598 1.66872 43.6163 2.44474C44.373 3.22074 44.9731 4.14216 45.382 5.15628C45.7909 6.17037 46.0009 7.25726 46 8.3547V37.6453C46.0009 38.7428 45.7909 39.8296 45.382 40.8436C44.9731 41.8579 44.373 42.7793 43.6163 43.5553C42.8598 44.3314 41.9614 44.9466 40.9727 45.3661C39.9839 45.7856 38.9243 46.0009 37.8541 46H8.14584C7.07583 46.0009 6.01611 45.7856 5.02736 45.3661C4.03862 44.9466 3.14024 44.3314 2.38361 43.5553C1.627 42.7793 1.02702 41.8579 0.618015 40.8436C0.209005 39.8296 -0.00100488 38.7428 3.615e-06 37.6453V8.3547C-0.00100488 7.25726 0.209005 6.17037 0.618015 5.15628C1.02702 4.14216 1.627 3.22074 2.38361 2.44474C3.14024 1.66872 4.03862 1.05336 5.02736 0.633862C6.01611 0.214364 7.07583 -0.00103064 8.14584 3.70765e-06Z" fill="#F7DF1E"/>
<path d="M30.9784 35.9933C31.9048 37.5063 33.1105 38.6183 35.2426 38.6183C37.0336 38.6183 38.1776 37.7231 38.1776 36.4862C38.1776 35.0039 37.0021 34.479 35.0307 33.6167L33.9502 33.153C30.8309 31.8241 28.7586 30.1594 28.7586 26.6399C28.7586 23.3981 31.2288 20.9302 35.0892 20.9302C37.8374 20.9302 39.8134 21.8867 41.2371 24.3912L37.871 26.5523C37.13 25.2236 36.3305 24.6999 35.0892 24.6999C33.823 24.6999 33.0205 25.5032 33.0205 26.5523C33.0205 27.8492 33.8237 28.3741 35.6784 29.1773L36.759 29.6403C40.4316 31.2151 42.5053 32.8207 42.5053 36.4308C42.5053 40.3224 39.4481 42.4545 35.3424 42.4545C31.3282 42.4545 28.7345 40.5416 27.4656 38.0341L30.9784 35.9933ZM15.7085 36.368C16.3876 37.5727 17.0053 38.5912 18.4905 38.5912C19.9106 38.5912 20.8065 38.0355 20.8065 35.8751V21.1769H25.129V35.9335C25.129 40.4093 22.5049 42.4464 18.6745 42.4464C15.2135 42.4464 13.2092 40.6554 12.1899 38.4982L15.7085 36.368Z" fill="black"/>
</g>
</g>
</g>
<defs>
<clipPath id="clip0_151_74">
<rect width="46" height="46" fill="white"/>
</clipPath>
</defs>
</svg>
