<svg width="65" height="65" viewBox="0 0 65 65" fill="none" xmlns="http://www.w3.org/2000/svg">
<g clip-path="url(#clip0_151_102)">
<mask id="mask0_151_102" style="mask-type:luminance" maskUnits="userSpaceOnUse" x="0" y="0" width="65" height="65">
<path d="M65 0H0V65H65V0Z" fill="white"/>
</mask>
<g mask="url(#mask0_151_102)">
<mask id="mask1_151_102" style="mask-type:luminance" maskUnits="userSpaceOnUse" x="0" y="0" width="65" height="65">
<path d="M65 0H0V65H65V0Z" fill="white"/>
</mask>
<g mask="url(#mask1_151_102)">
<path d="M32.4084 10.7251C21.1418 10.7251 21.8454 15.611 21.8454 15.611L21.8579 20.6727H32.6095V22.1925H17.5874C17.5874 22.1925 10.3779 21.3749 10.3779 32.7432C10.3779 44.1114 16.6705 43.708 16.6705 43.708H20.4261V38.433C20.4261 38.433 20.2236 32.1402 26.6182 32.1402C33.0128 32.1402 37.2817 32.1402 37.2817 32.1402C37.2817 32.1402 43.2731 32.237 43.2731 26.3499C43.2731 20.4629 43.2731 16.6158 43.2731 16.6158C43.2731 16.6158 44.1828 10.7251 32.4084 10.7251ZM26.4801 14.1289C27.5498 14.1289 28.4143 14.9935 28.4143 16.0632C28.4143 17.1328 27.5498 17.9974 26.4801 17.9974C25.4104 17.9974 24.5458 17.1328 24.5458 16.0632C24.5458 14.9935 25.4104 14.1289 26.4801 14.1289Z" fill="url(#paint0_linear_151_102)"/>
<path d="M32.7286 54.8751C43.9954 54.8751 43.2917 49.9894 43.2917 49.9894L43.2791 44.9275H32.5274V43.4078H47.5496C47.5496 43.4078 54.759 44.2255 54.759 32.8573C54.759 21.489 48.4664 21.8921 48.4664 21.8921H44.711V27.1674C44.711 27.1674 44.9135 33.4602 38.5188 33.4602C32.1241 33.4602 27.8552 33.4602 27.8552 33.4602C27.8552 33.4602 21.864 33.3635 21.864 39.2505C21.864 45.1376 21.864 48.9846 21.864 48.9846C21.864 48.9846 20.9543 54.8751 32.7286 54.8751ZM38.6569 51.4714C37.5873 51.4714 36.7225 50.6069 36.7225 49.537C36.7225 48.4674 37.5873 47.6029 38.6569 47.6029C39.7265 47.6029 40.5913 48.4674 40.5913 49.537C40.5913 50.6069 39.7265 51.4714 38.6569 51.4714Z" fill="url(#paint1_linear_151_102)"/>
</g>
</g>
</g>
<defs>
<linearGradient id="paint0_linear_151_102" x1="14.643" y1="14.5842" x2="36.5882" y2="36.6029" gradientUnits="userSpaceOnUse">
<stop stop-color="#387EB8"/>
<stop offset="1" stop-color="#366994"/>
</linearGradient>
<linearGradient id="paint1_linear_151_102" x1="28.1428" y1="28.5915" x2="51.7118" y2="51.1721" gradientUnits="userSpaceOnUse">
<stop stop-color="#FFE052"/>
<stop offset="1" stop-color="#FFC331"/>
</linearGradient>
<clipPath id="clip0_151_102">
<rect width="65" height="65" fill="white"/>
</clipPath>
</defs>
</svg>
