<svg width="50" height="50" viewBox="0 0 50 50" fill="none" xmlns="http://www.w3.org/2000/svg">
<path d="M29.2091 24.9517C29.2091 25.0197 29.2075 25.0878 29.204 25.1556C29.2008 25.2236 29.1957 25.2914 29.189 25.3591C29.1823 25.4268 29.1741 25.4944 29.1639 25.5616C29.154 25.6289 29.1422 25.696 29.1289 25.7627C29.1155 25.8294 29.1005 25.8957 29.084 25.9618C29.0674 26.0278 29.0492 26.0933 29.0291 26.1584C29.0094 26.2235 28.988 26.288 28.965 26.3521C28.9417 26.4162 28.9174 26.4796 28.8912 26.5424C28.865 26.6055 28.8372 26.6674 28.808 26.7291C28.7789 26.7906 28.7481 26.8512 28.7158 26.9113C28.6837 26.9711 28.65 27.0304 28.6147 27.0887C28.5794 27.1472 28.543 27.2047 28.5051 27.261C28.4671 27.3177 28.4278 27.3733 28.3869 27.4278C28.3463 27.4826 28.3043 27.5363 28.2607 27.5887C28.2174 27.6414 28.1727 27.693 28.1267 27.7432C28.0807 27.7937 28.034 27.843 27.9853 27.8911C27.9372 27.9392 27.8874 27.986 27.8369 28.0318C27.7864 28.0775 27.7345 28.1219 27.6815 28.165C27.6289 28.2081 27.5749 28.2499 27.5201 28.2906C27.465 28.331 27.4091 28.3703 27.3521 28.4078C27.2954 28.4459 27.2377 28.482 27.1789 28.5172C27.1203 28.5523 27.061 28.5855 27.0005 28.6177C26.9404 28.6499 26.8794 28.6805 26.8174 28.7094C26.7556 28.7387 26.6931 28.7661 26.63 28.7922C26.5667 28.8182 26.503 28.8427 26.4387 28.8656C26.3742 28.8884 26.3093 28.9097 26.2439 28.9297C26.1785 28.9493 26.1126 28.9674 26.0462 28.9839C25.9798 29.0004 25.9132 29.0153 25.8462 29.0286C25.779 29.0419 25.7117 29.0536 25.6441 29.0637C25.5765 29.0735 25.5086 29.0818 25.4405 29.0884C25.3726 29.0953 25.3044 29.1001 25.236 29.1036C25.1677 29.1068 25.0994 29.1086 25.031 29.1086C24.9626 29.1086 24.8943 29.1068 24.8261 29.1036C24.7578 29.1001 24.6895 29.0953 24.6215 29.0884C24.5534 29.0818 24.4856 29.0735 24.4179 29.0637C24.3504 29.0536 24.283 29.0419 24.2159 29.0286C24.1489 29.0153 24.0821 29.0004 24.0159 28.9839C23.9495 28.9674 23.8836 28.9493 23.8182 28.9297C23.7527 28.9097 23.6879 28.8884 23.6234 28.8656C23.559 28.8427 23.4952 28.8182 23.4321 28.7922C23.369 28.7661 23.3065 28.7387 23.2446 28.7094C23.1828 28.6805 23.1218 28.6499 23.0615 28.6177C23.0012 28.5855 22.9417 28.5523 22.883 28.5172C22.8244 28.482 22.7666 28.4459 22.7097 28.4078C22.653 28.3703 22.597 28.331 22.5422 28.2906C22.4872 28.2499 22.4333 28.2081 22.3804 28.165C22.3276 28.1219 22.2759 28.0775 22.2252 28.0318C22.1745 27.986 22.125 27.9392 22.0766 27.8911C22.0283 27.843 21.9811 27.7937 21.9353 27.7432C21.8893 27.693 21.8447 27.6414 21.8013 27.5887C21.758 27.5363 21.7158 27.4826 21.6751 27.4278C21.6344 27.3733 21.595 27.3177 21.557 27.261C21.5191 27.2047 21.4824 27.1472 21.4473 27.0887C21.4122 27.0304 21.3785 26.9711 21.3463 26.9113C21.314 26.8512 21.2833 26.7906 21.2541 26.7291C21.2248 26.6674 21.197 26.6055 21.1709 26.5424C21.1448 26.4796 21.1201 26.4162 21.0971 26.3521C21.074 26.288 21.0526 26.2235 21.0329 26.1584C21.013 26.0933 20.9946 26.0278 20.9781 25.9618C20.9615 25.8957 20.9465 25.8294 20.9332 25.7627C20.9198 25.696 20.9082 25.6289 20.8982 25.5616C20.8881 25.4944 20.8797 25.4268 20.8731 25.3591C20.8663 25.2914 20.8613 25.2236 20.8579 25.1556C20.8546 25.0878 20.8529 25.0197 20.8529 24.9517C20.8529 24.8836 20.8546 24.8157 20.8579 24.7477C20.8613 24.6797 20.8663 24.612 20.8731 24.5443C20.8797 24.4766 20.8881 24.409 20.8982 24.3417C20.9082 24.2745 20.9198 24.2075 20.9332 24.1408C20.9465 24.074 20.9615 24.0077 20.9781 23.9417C20.9946 23.8757 21.013 23.8102 21.0329 23.7451C21.0526 23.6799 21.074 23.6153 21.0971 23.5514C21.1201 23.4873 21.1448 23.4238 21.1709 23.3609C21.197 23.2981 21.2248 23.236 21.2541 23.1745C21.2833 23.1129 21.314 23.0522 21.3463 22.9922C21.3785 22.9322 21.4122 22.873 21.4473 22.8146C21.4824 22.7563 21.5191 22.6988 21.557 22.6422C21.595 22.5858 21.6344 22.5301 21.6751 22.4754C21.7158 22.4209 21.758 22.3673 21.8013 22.3147C21.8447 22.2621 21.8893 22.2106 21.9353 22.1602C21.9811 22.1098 22.0283 22.0605 22.0766 22.0123C22.125 21.9643 22.1745 21.9174 22.2252 21.8718C22.2759 21.826 22.3276 21.7816 22.3804 21.7384C22.4333 21.6953 22.4872 21.6534 22.5422 21.6129C22.597 21.5724 22.653 21.5332 22.7097 21.4954C22.7666 21.4577 22.8244 21.4212 22.883 21.3863C22.9417 21.3513 23.0012 21.3178 23.0615 21.2857C23.1218 21.2536 23.1828 21.223 23.2446 21.1939C23.3065 21.1649 23.369 21.1373 23.4321 21.1112C23.4952 21.0853 23.559 21.0608 23.6234 21.0378C23.6879 21.015 23.7527 20.9937 23.8182 20.9739C23.8836 20.9541 23.9495 20.936 24.0159 20.9195C24.0821 20.9029 24.1489 20.8879 24.2159 20.8748C24.283 20.8615 24.3504 20.8498 24.4179 20.8399C24.4856 20.8299 24.5534 20.8215 24.6215 20.8148C24.6895 20.8082 24.7578 20.8032 24.8261 20.7998C24.8943 20.7965 24.9626 20.7949 25.031 20.7949C25.0994 20.7949 25.1677 20.7965 25.236 20.7998C25.3044 20.8032 25.3726 20.8082 25.4405 20.8148C25.5086 20.8215 25.5765 20.8299 25.6441 20.8399C25.7117 20.8498 25.779 20.8615 25.8462 20.8748C25.9132 20.8879 25.9798 20.9029 26.0462 20.9195C26.1126 20.936 26.1785 20.9541 26.2439 20.9739C26.3093 20.9937 26.3742 21.015 26.4387 21.0378C26.503 21.0608 26.5667 21.0853 26.63 21.1112C26.6931 21.1373 26.7556 21.1649 26.8174 21.1939C26.8794 21.223 26.9404 21.2536 27.0005 21.2857C27.061 21.3177 27.1203 21.3513 27.1789 21.3863C27.2377 21.4212 27.2954 21.4577 27.3521 21.4954C27.4091 21.5332 27.465 21.5724 27.5201 21.6129C27.5749 21.6534 27.6289 21.6953 27.6815 21.7384C27.7345 21.7816 27.7864 21.826 27.8369 21.8716C27.8874 21.9174 27.9372 21.9643 27.9853 22.0123C28.034 22.0605 28.0807 22.1098 28.1267 22.1602C28.1727 22.2106 28.2174 22.2621 28.2607 22.3147C28.3043 22.3673 28.3463 22.4209 28.3869 22.4754C28.4278 22.5301 28.4671 22.5858 28.5051 22.6422C28.543 22.6988 28.5794 22.7563 28.6147 22.8147C28.65 22.873 28.6837 22.9322 28.7158 22.9922C28.7481 23.0522 28.7789 23.1129 28.808 23.1745C28.8372 23.236 28.865 23.2981 28.8912 23.3609C28.9174 23.4238 28.9417 23.4873 28.965 23.5514C28.988 23.6153 29.0094 23.6799 29.0291 23.7451C29.0492 23.8102 29.0674 23.8757 29.084 23.9417C29.1005 24.0077 29.1155 24.074 29.1289 24.1408C29.1422 24.2075 29.154 24.2745 29.1639 24.3417C29.1741 24.409 29.1823 24.4766 29.189 24.5443C29.1957 24.612 29.2008 24.6797 29.204 24.7477C29.2075 24.8157 29.2091 24.8836 29.2091 24.9517Z" fill="#00D8FF"/>
<mask id="mask0_151_61" style="mask-type:luminance" maskUnits="userSpaceOnUse" x="1" y="5" width="48" height="40">
<path d="M1.63635 5.24048H48.4255V44.7681H1.63635V5.24048Z" fill="white"/>
</mask>
<g mask="url(#mask0_151_61)">
<path d="M25.0313 16.4998C30.641 16.4998 35.8522 17.3006 39.7817 18.6464C44.5162 20.268 47.4268 22.7258 47.4268 24.9515C47.4268 27.2707 44.3421 29.8819 39.2579 31.5577C35.4145 32.8247 30.3565 33.4859 25.0313 33.4859C19.5717 33.4859 14.4018 32.8654 10.5148 31.5439C5.59724 29.8715 2.63525 27.2266 2.63525 24.9515C2.63525 22.7439 5.41446 20.305 10.0822 18.6858C14.0261 17.3179 19.3663 16.4998 25.0313 16.4998Z" stroke="#00D8FF" stroke-width="2.119"/>
</g>
<mask id="mask1_151_61" style="mask-type:luminance" maskUnits="userSpaceOnUse" x="1" y="3" width="48" height="44">
<path d="M1.63623 3.1958H48.4254V46.784H1.63623V3.1958Z" fill="white"/>
</mask>
<g mask="url(#mask1_151_61)">
<path d="M17.6363 20.7491C20.4388 15.9145 23.7394 11.8235 26.8741 9.10902C30.6511 5.839 34.2449 4.55828 36.1829 5.67001C38.2024 6.82862 38.9348 10.792 37.8543 16.011C37.038 19.9565 35.0864 24.6458 32.4259 29.2354C29.6984 33.941 26.5753 38.0867 23.483 40.7755C19.5703 44.1782 15.7875 45.4098 13.807 44.2731C11.8847 43.171 11.1498 39.5567 12.0718 34.7253C12.8509 30.6428 14.8062 25.6321 17.6352 20.75L17.6363 20.7491Z" stroke="#00D8FF" stroke-width="2.119"/>
<path d="M17.6431 29.2473C14.8331 24.4183 12.9193 19.5296 12.1206 15.4719C11.1592 10.5832 11.839 6.84536 13.775 5.73004C15.7925 4.56804 19.6095 5.91597 23.6142 9.45371C26.6421 12.1285 29.7512 16.1519 32.4191 20.7368C35.1544 25.4377 37.2046 30.2003 38.002 34.2082C39.0113 39.2803 38.1945 43.1553 36.2153 44.2955C34.295 45.4016 30.7811 44.2308 27.0341 41.0226C23.8683 38.3122 20.4813 34.1253 17.6431 29.2473Z" stroke="#00D8FF" stroke-width="2.119"/>
</g>
</svg>
