<svg width="50" height="50" viewBox="0 0 50 50" fill="none" xmlns="http://www.w3.org/2000/svg">
<path d="M25 10.0042C19.1781 10.0042 15.2635 12.5448 13.2542 17.6271C13.0458 18.1531 13.6885 18.5854 14.1042 18.201C16.2239 16.2406 18.6062 15.5917 21.25 16.2521C23.1521 16.7271 24.5114 18.1072 26.0167 19.6343C28.4667 22.1207 31.3031 25 37.5 25C43.3219 25 47.2375 22.4583 49.2458 17.3759C49.4542 16.8499 48.8114 16.4176 48.3958 16.802C46.276 18.7624 43.8937 19.4125 41.25 18.7521C39.3489 18.2771 37.9896 16.8968 36.4844 15.3698C34.0333 12.8823 31.1958 10.0042 25 10.0042ZM12.5 25C6.67808 25 2.76246 27.5416 0.754123 32.6239C0.54579 33.15 1.1885 33.5822 1.60412 33.1978C3.72392 31.2374 6.10621 30.5874 8.74996 31.2488C10.651 31.7249 12.0104 33.104 13.5156 34.6301C15.9667 37.1176 18.8042 39.9968 25 39.9968C30.8219 39.9968 34.7375 37.4551 36.7458 32.3728C36.9542 31.8468 36.3114 31.4146 35.8958 31.7989C33.776 33.7594 31.3937 34.4093 28.75 33.7478C26.8479 33.2728 25.4885 31.8927 23.9833 30.3666C21.5333 27.8792 18.6969 25 12.5 25Z" fill="url(#paint0_linear_151_113)"/>
<defs>
<linearGradient id="paint0_linear_151_113" x1="22.7719" y1="8.58014" x2="26.7739" y2="38.0749" gradientUnits="userSpaceOnUse">
<stop stop-color="#00C1E0"/>
<stop offset="1" stop-color="#009BB8"/>
</linearGradient>
</defs>
</svg>
