<svg width="55" height="55" viewBox="0 0 55 55" fill="none" xmlns="http://www.w3.org/2000/svg">
<path d="M48.125 6.875H6.875V48.125H48.125V6.875Z" fill="url(#paint0_linear_151_85)"/>
<path d="M31.499 25.2085H16.3018V28.9485H21.7525V45.8335H26.0711V28.9485H31.499V25.2085Z" fill="white"/>
<path d="M44.9099 29.8878C44.9099 29.8878 42.8623 28.522 40.5477 28.522C38.2331 28.522 37.4001 29.622 37.4001 30.7976C37.4001 33.8318 45.8575 33.5281 45.8575 39.6343C45.8575 49.0404 32.9623 44.8684 32.9623 44.8684V40.3562C32.9623 40.3562 35.4281 42.2147 38.3855 42.2147C41.3429 42.2147 41.2306 40.2805 41.2306 40.0147C41.2306 37.2085 32.8488 37.2085 32.8488 30.9878C32.8488 22.5304 45.0611 25.8671 45.0611 25.8671L44.9099 29.8878Z" fill="white"/>
<defs>
<linearGradient id="paint0_linear_151_85" x1="17.4041" y1="-0.238333" x2="36.9829" y2="53.5528" gradientUnits="userSpaceOnUse">
<stop stop-color="#2AA4F4"/>
<stop offset="1" stop-color="#007AD9"/>
</linearGradient>
</defs>
</svg>
