<svg width="55" height="55" viewBox="0 0 55 55" fill="none" xmlns="http://www.w3.org/2000/svg">
<g clip-path="url(#clip0_151_45)">
<mask id="mask0_151_45" style="mask-type:luminance" maskUnits="userSpaceOnUse" x="0" y="0" width="55" height="55">
<path d="M55 0H0V55H55V0Z" fill="white"/>
</mask>
<g mask="url(#mask0_151_45)">
<path d="M14.0361 38.3851C13.8126 38.5762 13.5406 38.7013 13.2502 38.747C12.9597 38.7926 12.6624 38.7566 12.3911 38.6433L9.50248 37.4317C9.21434 37.3115 8.96799 37.1091 8.79414 36.8498C8.62031 36.5904 8.52673 36.2855 8.52502 35.9733V19.0228C8.52673 18.7106 8.62031 18.4058 8.79414 18.1465C8.96799 17.8871 9.21434 17.6847 9.50248 17.5645L12.3911 16.3725C12.6624 16.2592 12.9597 16.2234 13.2502 16.269C13.5406 16.3146 13.8126 16.4398 14.0361 16.6308L14.6838 17.1672C14.5524 17.0728 14.3976 17.0165 14.2362 17.0045C14.0749 16.9925 13.9135 17.0253 13.7696 17.0993C13.6257 17.1733 13.5051 17.2856 13.421 17.4237C13.3369 17.5619 13.2927 17.7207 13.2931 17.8824V37.1138C13.2927 37.2755 13.3369 37.4341 13.421 37.5725C13.5051 37.7105 13.6257 37.8227 13.7696 37.8967C13.9135 37.9707 14.0749 38.0037 14.2362 37.9916C14.3976 37.9797 14.5524 37.9234 14.6838 37.829L14.0361 38.3851Z" fill="#52218A"/>
<path d="M9.50248 37.4317C9.21434 37.3115 8.96799 37.1091 8.79414 36.8498C8.62031 36.5905 8.52673 36.2855 8.52502 35.9734V35.8422C8.52698 36.0256 8.58387 36.2044 8.68835 36.3551C8.79285 36.506 8.94011 36.6221 9.11119 36.6884C9.28226 36.7546 9.46926 36.7681 9.6481 36.7271C9.8269 36.6862 9.98932 36.5924 10.1144 36.4582L34.7495 9.22045C35.0982 8.87329 35.5462 8.64265 36.0313 8.56012C36.5164 8.4776 37.0153 8.54725 37.4594 8.75953L45.3186 12.5422C45.7234 12.7368 46.0652 13.0419 46.3042 13.4222C46.5432 13.8025 46.67 14.2426 46.6697 14.6918V14.7832C46.6694 14.4982 46.5883 14.2192 46.4359 13.9785C46.2833 13.7378 46.0655 13.5453 45.8081 13.4234C45.5504 13.3014 45.2636 13.2551 44.9806 13.2897C44.6979 13.3244 44.4306 13.4385 44.2101 13.619L14.6838 37.8291L14.0361 38.3851C13.8126 38.5762 13.5406 38.7014 13.2502 38.747C12.9597 38.7927 12.6624 38.7569 12.3911 38.6436L9.50248 37.4317Z" fill="#6C33AF"/>
<path d="M9.50248 17.5646C9.21434 17.6848 8.96799 17.8872 8.79414 18.1465C8.62031 18.4058 8.52673 18.7106 8.52502 19.0228V19.1539C8.52698 18.9705 8.58387 18.7918 8.68835 18.641C8.79285 18.4902 8.94011 18.3742 9.11119 18.3079C9.28226 18.2416 9.46926 18.2281 9.6481 18.2691C9.8269 18.3102 9.98932 18.4038 10.1144 18.5381L34.7495 45.7758C35.0982 46.1228 35.5462 46.3535 36.0313 46.436C36.5164 46.5185 37.0153 46.449 37.4594 46.2367L45.3186 42.454C45.7234 42.2593 46.0652 41.9544 46.3042 41.574C46.5432 41.1937 46.67 40.7534 46.6697 40.3044V40.2131C46.6694 40.498 46.5883 40.7771 46.4359 41.0177C46.2833 41.2583 46.0655 41.4508 45.8081 41.5729C45.5504 41.6948 45.2636 41.741 44.9806 41.7066C44.6979 41.6719 44.4306 41.5575 44.2101 41.3771L14.6838 17.1672L14.0361 16.611C13.8106 16.4233 13.5376 16.3016 13.2473 16.2596C12.9569 16.2175 12.6606 16.2566 12.3911 16.3726L9.50248 17.5646Z" fill="#854CC7"/>
<path d="M37.4594 46.2366C37.0153 46.4489 36.5164 46.5185 36.0313 46.436C35.5462 46.3535 35.0982 46.1228 34.7495 45.7757C34.9453 45.9702 35.1942 46.1022 35.4651 46.1555C35.7357 46.2089 36.0162 46.1808 36.2711 46.0749C36.5258 45.9693 36.7438 45.7906 36.8973 45.5612C37.0507 45.3319 37.133 45.0624 37.1335 44.7863V10.2177C37.1346 9.94117 37.0535 9.67049 36.9006 9.43999C36.7477 9.20945 36.5299 9.02947 36.2747 8.92271C36.0195 8.81596 35.7384 8.78727 35.467 8.84027C35.1953 8.89326 34.9459 9.02556 34.7495 9.22045C35.0982 8.87329 35.5462 8.64265 36.0313 8.56012C36.5164 8.4776 37.0153 8.54725 37.4594 8.75953L45.3186 12.5382C45.7237 12.7329 46.0652 13.0379 46.3042 13.4182C46.5432 13.7986 46.67 14.2387 46.6697 14.6878V40.3085C46.67 40.7575 46.5432 41.1975 46.3042 41.5779C46.0652 41.9582 45.7237 42.2634 45.3186 42.4579L37.4594 46.2366Z" fill="#B179F1"/>
<g opacity="0.25">
<path fill-rule="evenodd" clip-rule="evenodd" d="M35.8977 46.4116C36.4232 46.5315 36.9735 46.4699 37.4594 46.2367L45.3186 42.4579C45.7234 42.2632 46.0652 41.9582 46.3042 41.5779C46.5432 41.1976 46.67 40.7576 46.6697 40.3082V14.6878C46.67 14.2387 46.5432 13.7985 46.3042 13.4182C46.0652 13.0379 45.7234 12.7329 45.3186 12.5382L37.4594 8.75952C36.9033 8.49222 36.2651 8.45091 35.6793 8.64429C35.329 8.76169 35.0105 8.95892 34.7495 9.22044L22.0822 23.2307L14.6838 17.1672L14.0361 16.611C13.8413 16.4444 13.6091 16.3274 13.3594 16.27C13.1096 16.2126 12.8497 16.2164 12.6017 16.2812C12.5291 16.2972 12.4585 16.3212 12.3911 16.3527L9.50248 17.5646C9.2321 17.6762 8.9978 17.8603 8.82532 18.0965C8.65287 18.3328 8.54895 18.6121 8.52502 18.9036C8.52502 18.9434 8.52502 18.9831 8.52502 19.0228V35.9734C8.52502 36.013 8.52502 36.0529 8.52502 36.0925C8.54895 36.384 8.65287 36.6634 8.82532 36.8996C8.9978 37.1358 9.2321 37.3201 9.50248 37.4317L12.3911 38.6236C12.4585 38.6552 12.5291 38.6791 12.6017 38.6951C12.8497 38.76 13.1096 38.7638 13.3594 38.7063C13.6091 38.6489 13.8413 38.532 14.0361 38.3653L14.6838 37.8288L22.0822 31.7656L34.7495 45.7758C35.0652 46.0909 35.4632 46.3112 35.8977 46.4116ZM37.1335 19.4241L27.2834 27.4981L37.1335 35.5722V19.4241ZM13.2931 22.0426L18.2241 27.4981L13.2931 32.9536V22.0426Z" fill="url(#paint0_linear_151_45)"/>
</g>
</g>
</g>
<defs>
<linearGradient id="paint0_linear_151_45" x1="27.5973" y1="8.52508" x2="27.5973" y2="46.471" gradientUnits="userSpaceOnUse">
<stop stop-color="white"/>
<stop offset="1" stop-color="white" stop-opacity="0"/>
</linearGradient>
<clipPath id="clip0_151_45">
<rect width="55" height="55" fill="white"/>
</clipPath>
</defs>
</svg>
